<mxfile host="" modified="2020-06-17T12:09:31.474Z" agent="5.0 (Macintosh; Intel Mac OS X 10_15_5) AppleWebKit/537.36 (KHTML, like Gecko) Code/1.45.1 Chrome/78.0.3904.130 Electron/7.2.4 Safari/537.36" etag="jDix7j25mi25U5nfEnrR" version="13.1.3">
    <diagram id="6hGFLwfOUW9BJ-s0fimq" name="Page-1">
        <mxGraphModel dx="1378" dy="860" grid="1" gridSize="10" guides="1" tooltips="1" connect="1" arrows="1" fold="1" page="1" pageScale="1" pageWidth="827" pageHeight="1169" math="0" shadow="0">
            <root>
                <mxCell id="0"/>
                <mxCell id="1" parent="0"/>
                <mxCell id="9" style="edgeStyle=orthogonalEdgeStyle;rounded=0;orthogonalLoop=1;jettySize=auto;html=1;entryX=0;entryY=0.5;entryDx=0;entryDy=0;" edge="1" parent="1" source="2" target="3">
                    <mxGeometry relative="1" as="geometry"/>
                </mxCell>
                <mxCell id="10" style="edgeStyle=orthogonalEdgeStyle;rounded=0;orthogonalLoop=1;jettySize=auto;html=1;entryX=0;entryY=0.5;entryDx=0;entryDy=0;" edge="1" parent="1" source="2" target="4">
                    <mxGeometry relative="1" as="geometry"/>
                </mxCell>
                <mxCell id="11" style="edgeStyle=orthogonalEdgeStyle;rounded=0;orthogonalLoop=1;jettySize=auto;html=1;entryX=0;entryY=0.5;entryDx=0;entryDy=0;" edge="1" parent="1" source="2" target="6">
                    <mxGeometry relative="1" as="geometry"/>
                </mxCell>
                <mxCell id="12" style="edgeStyle=orthogonalEdgeStyle;rounded=0;orthogonalLoop=1;jettySize=auto;html=1;entryX=0;entryY=0.5;entryDx=0;entryDy=0;" edge="1" parent="1" source="2" target="7">
                    <mxGeometry relative="1" as="geometry"/>
                </mxCell>
                <mxCell id="13" style="edgeStyle=orthogonalEdgeStyle;rounded=0;orthogonalLoop=1;jettySize=auto;html=1;entryX=0;entryY=0.5;entryDx=0;entryDy=0;" edge="1" parent="1" source="2" target="8">
                    <mxGeometry relative="1" as="geometry"/>
                </mxCell>
                <mxCell id="2" value="系统" style="shape=umlActor;verticalLabelPosition=bottom;labelBackgroundColor=#333333;verticalAlign=top;html=1;outlineConnect=0;" vertex="1" parent="1">
                    <mxGeometry x="80" y="300" width="30" height="60" as="geometry"/>
                </mxCell>
                <mxCell id="3" value="发文章" style="ellipse;whiteSpace=wrap;html=1;labelBackgroundColor=#333333;" vertex="1" parent="1">
                    <mxGeometry x="170" y="106" width="100" height="50" as="geometry"/>
                </mxCell>
                <mxCell id="4" value="发提问" style="ellipse;whiteSpace=wrap;html=1;labelBackgroundColor=#333333;" vertex="1" parent="1">
                    <mxGeometry x="170" y="176" width="100" height="50" as="geometry"/>
                </mxCell>
                <mxCell id="5" value="使用综合评分来限制&lt;br&gt;功能使用的次数" style="text;html=1;resizable=0;autosize=1;align=center;verticalAlign=middle;points=[];fillColor=none;strokeColor=none;rounded=0;labelBackgroundColor=#333333;" vertex="1" parent="1">
                    <mxGeometry x="10" y="35" width="120" height="30" as="geometry"/>
                </mxCell>
                <mxCell id="6" value="在线求助" style="ellipse;whiteSpace=wrap;html=1;labelBackgroundColor=#333333;" vertex="1" parent="1">
                    <mxGeometry x="170" y="246" width="100" height="50" as="geometry"/>
                </mxCell>
                <mxCell id="7" value="申请免费咨询" style="ellipse;whiteSpace=wrap;html=1;labelBackgroundColor=#333333;" vertex="1" parent="1">
                    <mxGeometry x="170" y="316" width="100" height="50" as="geometry"/>
                </mxCell>
                <mxCell id="8" value="申请活动" style="ellipse;whiteSpace=wrap;html=1;labelBackgroundColor=#333333;" vertex="1" parent="1">
                    <mxGeometry x="170" y="386" width="100" height="50" as="geometry"/>
                </mxCell>
            </root>
        </mxGraphModel>
    </diagram>
</mxfile>